<svg width="64" height="64" viewBox="0 0 64 64" fill="none" xmlns="http://www.w3.org/2000/svg">
<path d="M63.9481 9.04812C63.8222 8.66299 63.4895 8.38149 63.0873 8.32274L59.2665 7.76698L57.5566 4.30455C57.1983 3.57492 56.0025 3.57492 55.6441 4.30455L53.9342 7.76698L50.1133 8.32286C49.7112 8.38149 49.3784 8.66212 49.2514 9.04825C49.1266 9.43438 49.23 9.85889 49.5213 10.1416L52.2872 12.8372L51.6344 16.6431C51.5662 17.0431 51.7304 17.4474 52.0579 17.6864C52.3897 17.9275 52.8227 17.9573 53.1822 17.7674L56.5999 15.97L60.0176 17.7674C60.1733 17.8495 60.3451 17.89 60.5147 17.89C60.7354 17.89 60.9563 17.8218 61.1419 17.6863C61.4704 17.4474 61.6347 17.043 61.5654 16.643L60.9127 12.8371L63.6786 10.1415C63.9684 9.85776 64.073 9.43425 63.9481 9.04812ZM59.0223 11.702C58.7717 11.9463 58.6564 12.3004 58.7162 12.6461L59.098 14.8743L57.097 13.8226C56.9413 13.7404 56.7706 13.6999 56.5999 13.6999C56.4292 13.6999 56.2596 13.7404 56.1027 13.8226L54.1016 14.8743L54.4835 12.6461C54.5432 12.3004 54.428 11.9474 54.1773 11.702L52.5571 10.1234L54.795 9.79801C55.1427 9.74788 55.4425 9.52926 55.5982 9.2145L56.5988 7.18785L57.5993 9.2145C57.755 9.52913 58.0548 9.74788 58.4025 9.79801L60.6404 10.1234L59.0223 11.702Z" fill="#4D5AE5"/>
<path d="M52.2669 41.0444H50.1335V43.1778H52.2669V41.0444Z" fill="#4D5AE5"/>
<path d="M52.2669 45.3112H50.1335V47.4446H52.2669V45.3112Z" fill="#4D5AE5"/>
<path d="M54.4003 43.1778H52.2669V45.3112H54.4003V43.1778Z" fill="#4D5AE5"/>
<path d="M50.1337 43.1778H48.0003V45.3112H50.1337V43.1778Z" fill="#4D5AE5"/>
<path d="M44.8002 52.778H42.6668V54.9113H44.8002V52.778Z" fill="#4D5AE5"/>
<path d="M44.8002 57.0446H42.6668V59.1781H44.8002V57.0446Z" fill="#4D5AE5"/>
<path d="M46.9336 54.9113H44.8002V57.0448H46.9336V54.9113Z" fill="#4D5AE5"/>
<path d="M42.6668 54.9113H40.5334V57.0448H42.6668V54.9113Z" fill="#4D5AE5"/>
<path d="M32 48.5113H29.8666V50.6447H32V48.5113Z" fill="#4D5AE5"/>
<path d="M32 52.778H29.8666V54.9113H32V52.778Z" fill="#4D5AE5"/>
<path d="M34.1334 50.6445H32V52.7779H34.1334V50.6445Z" fill="#4D5AE5"/>
<path d="M29.8666 50.6445H27.7332V52.7779H29.8666V50.6445Z" fill="#4D5AE5"/>
<path d="M11.733 12.2439H9.59964V14.3773H11.733V12.2439Z" fill="#4D5AE5"/>
<path d="M11.733 16.5108H9.59964V18.6442H11.733V16.5108Z" fill="#4D5AE5"/>
<path d="M13.8663 14.3774H11.7329V16.5108H13.8663V14.3774Z" fill="#4D5AE5"/>
<path d="M9.59964 14.3774H7.46624V16.5108H9.59964V14.3774Z" fill="#4D5AE5"/>
<path d="M49.4295 28.5396C48.8546 27.7641 48.0109 27.265 47.053 27.1305C46.0908 26.994 45.1414 27.2467 44.3734 27.8345L41.8699 29.7534L41.8688 29.7545L38.0734 32.5887L35.3577 31.507C40.2004 29.3342 43.585 24.4904 43.585 18.8668C43.585 11.2208 37.3396 5 29.6627 5C21.9858 5 15.7405 11.2208 15.7405 18.8668C15.7405 21.6381 16.5692 24.2152 17.9805 26.3837L12.4529 26.3357C12.4497 26.3357 12.4465 26.3357 12.4433 26.3357C12.4262 26.3357 12.4124 26.3442 12.3964 26.3453C12.2908 26.3496 12.1873 26.371 12.086 26.4072C12.0604 26.4168 12.0338 26.4222 12.0093 26.4338C11.9965 26.4392 11.9837 26.4402 11.9709 26.4466L5.50468 29.6391C5.50356 29.6391 5.50256 29.6391 5.50256 29.6401L1.71575 31.4612C1.67412 31.4793 1.6315 31.5038 1.58987 31.5315C0.0804746 32.5363 -0.433659 34.5097 0.393104 36.1225C0.833611 36.9801 1.5835 37.6116 2.50514 37.9006C2.86039 38.0115 3.22302 38.066 3.58353 38.066C4.16279 38.066 4.73667 37.9241 5.26243 37.6436L8.03798 36.1674L12.566 33.8292L15.2797 33.8132L4.39629 44.6444C4.39529 44.6455 4.39417 44.6455 4.39304 44.6465L1.71563 47.3132C1.08312 47.9425 0.73536 48.7777 0.73536 49.6684C0.73536 50.5581 1.08312 51.3953 1.71563 52.0258C2.36526 52.6722 3.21965 52.9965 4.07404 52.9965C4.92955 52.9965 5.78281 52.6722 6.43457 52.0258L9.06287 49.4082L12.5445 46.8086L14.3462 48.6028L10.8229 52.1111C10.8219 52.1122 10.8208 52.1122 10.8196 52.1132L8.14223 54.7799C7.50972 55.4093 7.16196 56.2444 7.16196 57.1352C7.16196 58.0248 7.50972 58.8621 8.14223 59.4926C8.79186 60.139 9.64738 60.4632 10.5018 60.4632C11.3562 60.4632 12.2117 60.139 12.8623 59.4926L15.5407 56.8259L19.8255 52.5592C19.8267 52.5581 19.8267 52.5571 19.8277 52.556L21.8469 50.556L21.8394 50.5485C21.8522 50.5357 21.8703 50.5313 21.8832 50.5176L32.2151 39.2011L39.1571 40.1889C39.2072 40.1964 39.2573 40.1995 39.3075 40.1995C39.4366 40.1995 39.5613 40.1687 39.6819 40.1228C39.7171 40.11 39.748 40.0929 39.7811 40.0759C39.8195 40.0567 39.86 40.046 39.8964 40.0215L46.3231 35.7548C46.3466 35.7388 46.3593 35.7132 46.3817 35.6962C46.4073 35.676 46.4393 35.6675 46.4627 35.645L49.0056 33.2631C50.3288 32.0233 50.5111 29.9924 49.4295 28.5396ZM4.26079 35.761C3.91416 35.9466 3.52053 35.9839 3.14402 35.8645C2.77064 35.7482 2.46776 35.4932 2.29063 35.1487C1.9685 34.5215 2.15513 33.7577 2.71939 33.3449L5.34668 32.0809L5.97919 33.9294L6.24482 34.706L4.26079 35.761ZM11.255 32.1055L8.15848 33.7056L7.64759 32.2122L7.28071 31.139L11.3342 29.1379L11.255 32.1055ZM41.4539 18.8647C41.4539 20.7015 41.0155 22.4339 40.256 23.9837L31.8932 20.1852C31.8057 19.0386 31.2106 18.0348 30.3167 17.4097L33.2447 7.68904C38.0001 9.20169 41.4539 13.638 41.4539 18.8647ZM17.876 18.8647C17.876 12.3952 23.1646 7.13116 29.6649 7.13116C30.1706 7.13116 30.6655 7.17378 31.1551 7.23566L28.291 16.7431C28.2527 16.7419 28.2164 16.7313 28.1769 16.7313C26.1118 16.7313 24.4317 18.406 24.4317 20.4647C24.4317 22.5234 26.1118 24.1982 28.1769 24.1982C29.5657 24.1982 30.7657 23.4313 31.4132 22.309L39.1381 25.8184C36.9887 28.7112 33.5486 30.5983 29.6648 30.5983C23.1646 30.5983 17.876 25.3342 17.876 18.8647ZM29.7887 20.4647C29.7887 21.3469 29.0654 22.0648 28.1769 22.0648C27.2884 22.0648 26.5651 21.3469 26.5651 20.4647C26.5651 19.5826 27.2884 18.8647 28.1769 18.8647C29.0654 18.8647 29.7887 19.5826 29.7887 20.4647ZM4.92968 50.5132C4.45717 50.9815 3.69228 50.9805 3.2209 50.5143C2.99365 50.2871 2.86889 49.9874 2.86889 49.6684C2.86889 49.3506 2.99365 49.0508 3.2209 48.8258L5.14505 46.9089L6.84746 48.6039L4.92968 50.5132ZM11.3574 57.9801C10.8849 58.4483 10.119 58.4494 9.6475 57.9812C9.42025 57.7539 9.29549 57.4543 9.29549 57.1353C9.29549 56.8174 9.42025 56.5177 9.6475 56.2927L11.5729 54.3748L12.3783 55.1759L13.2764 56.0698L11.3574 57.9801ZM18.3208 51.0423C18.3196 51.0433 18.3186 51.0433 18.3175 51.0445L14.7878 54.5645L13.9824 53.7634L13.0843 52.8695L16.6107 49.3591C16.6107 49.3591 16.6107 49.3591 16.6107 49.3581C16.6119 49.3569 16.6129 49.3569 16.614 49.3559C16.694 49.2759 16.7441 49.1799 16.7932 49.0851C16.8071 49.0573 16.8337 49.0338 16.8455 49.0051C16.8786 48.9229 16.8839 48.8344 16.8967 48.7479C16.9031 48.6988 16.9245 48.653 16.9245 48.6028C16.9245 48.5313 16.8989 48.462 16.884 48.3915C16.8712 48.3275 16.8712 48.2624 16.8466 48.2007C16.8061 48.1004 16.7367 48.0119 16.6642 47.9254C16.644 47.9019 16.6365 47.872 16.6141 47.8497C16.6141 47.8497 16.6141 47.8497 16.613 47.8497C16.6119 47.8487 16.6119 47.8464 16.6109 47.8454L13.3969 44.6454C13.3628 44.6112 13.3191 44.5974 13.2807 44.5686C13.2242 44.5249 13.1698 44.4844 13.1068 44.4534C13.0461 44.4235 12.9842 44.4054 12.9202 44.3882C12.8519 44.369 12.7858 44.3541 12.7143 44.3487C12.6492 44.3445 12.5884 44.3509 12.5234 44.3584C12.4519 44.3669 12.3848 44.3765 12.3154 44.3989C12.2482 44.4202 12.1885 44.4532 12.1267 44.4885C12.0872 44.5109 12.0424 44.5184 12.005 44.5461L8.45836 47.1936L6.6567 45.3995L11.4547 40.6272L20.1759 49.2044L18.3208 51.0423ZM31.9584 37.009C31.9275 37.0047 31.8986 37.0165 31.8677 37.0144C31.7898 37.0101 31.7152 37.0155 31.6373 37.0282C31.5766 37.0389 31.519 37.0506 31.4613 37.0709C31.3931 37.0944 31.3312 37.1264 31.2682 37.1647C31.2085 37.201 31.1541 37.2394 31.1018 37.2874C31.0762 37.3097 31.0453 37.3205 31.0218 37.346L21.6253 47.6374L12.9692 39.1241L18.6354 33.4878C19.0525 33.0718 19.0546 32.3965 18.6386 31.9784C18.4285 31.7683 18.1523 31.6648 17.876 31.6659V31.6649L13.4386 31.6915L13.4941 28.4766L19.7022 28.53C22.2323 31.1178 25.7609 32.7317 29.6649 32.7317C30.5396 32.7317 31.393 32.641 32.2239 32.4863C32.3039 32.5503 32.3827 32.6154 32.4831 32.6559L37.3024 34.576L37.6074 36.0927L37.9637 37.8634L31.9584 37.009ZM40.0406 37.3652L39.4145 34.2495L42.3073 32.0894L43.0647 33.0942L44.2007 34.6025L40.0406 37.3652ZM47.5478 31.7033L45.8721 33.2734L44.0097 30.8009L45.6726 29.5263C45.9829 29.2874 46.3745 29.1902 46.7585 29.2404C47.1446 29.2948 47.486 29.4964 47.7185 29.8089C48.1516 30.3924 48.078 31.2063 47.5478 31.7033Z" fill="#2E2F42"/>
<path d="M27.2042 37.0881L22.9182 32.8214C22.5033 32.4065 21.8291 32.4065 21.4131 32.8214L17.1283 37.0881C16.9278 37.2897 16.8146 37.5606 16.8146 37.8443C16.8146 38.1281 16.9266 38.4001 17.1283 38.6006L21.4131 42.8673C21.6211 43.0742 21.8942 43.1777 22.1662 43.1777C22.4382 43.1777 22.7112 43.0742 22.9182 42.8673L27.2042 38.6006C27.4047 38.4001 27.5188 38.1281 27.5188 37.8443C27.5188 37.5606 27.4057 37.2886 27.2042 37.0881ZM22.1662 40.606L19.3928 37.8443L22.1662 35.0827L24.9406 37.8443L22.1662 40.606Z" fill="#2E2F42"/>
<path d="M34.3285 10.1415L33.8133 12.2131C33.9552 12.2483 37.2886 13.1166 37.2886 16.5108H39.422C39.4219 12.4765 36.0907 10.5799 34.3285 10.1415Z" fill="#2E2F42"/>
<path d="M39.422 18.644H37.2886V20.7775H39.422V18.644Z" fill="#2E2F42"/>
</svg>
